<?xml version="1.0" encoding="utf-8"?>

<!DOCTYPE svg PUBLIC "-//W3C//DTD SVG 1.1//EN" "http://www.w3.org/Graphics/SVG/1.1/DTD/svg11.dtd">
<svg version="1.1" id="Layer_1" xmlns="http://www.w3.org/2000/svg" xmlns:xlink="http://www.w3.org/1999/xlink" x="0px" y="0px"
     viewBox="0 0 2408.866 1640.919" enable-background="new 0 0 2408.866 1640.919" xml:space="preserve">
<g>
    <path d="M2369.93,68.435c-64.717-56.191-62.303-50.738-91.613-41.673c-1.68-1.295-3.077-2.839-4.531-4.326
        c-2.793-0.511-5.53-1.181-8.21-1.976c-5.326,0.783-11.139,0.852-15.716,4.008c-2.884,2.827-4.531,6.768-7.915,9.107
        c-33.233,25.858-21.846,32.936-30.364,42.355c-6.904,7.165-14.137,14.41-18.373,23.551c-1.635,3.531-4.61,6.2-6.234,9.709
        c-1.272,2.737-0.25,5.973-1.408,8.698c-2.18,2.952-6.484,1.465-9.447,2.952c-15.049,7.448-12.062,21.768-13.921,25.617
        c-12.211,10.808-17.222,34.163-29.273,41.514c-9.76,6.357-6.12,0.82-14.603,14.818c-1,0.84-17.674,9.158-19.894,21.529
        c9.711,18.795-20.288,26.651-15.534,43.91c0.659,3.577,3.429,7.642,0.25,10.799c-7.812,9.675-7.824,22.585-11.128,34.009
        c-0.363,2.907,1.613,7.04-1.76,8.755c-3.77,0.182-7.415-1.204-11.026-2.032c-1.692,0.636-3.429,1.204-4.973,2.078
        c-1.964,2.555-3.1,5.7-5.462,7.937c-3.077,2.089-7.006,2.282-10.117,4.258c-2.941,1.601-5.178,4.167-8.04,5.848
        c-2.884,0.897-5.87-0.238-8.721-0.602c-21.845,2.784-32.328-1.707-41.901-2.021c-10.447-1.556-21.143,2.089-31.454-0.806
        c-5.167-1.889-20.685,5.559-27.025,4.213c-4.133-0.999-8.414-0.511-12.547-1.238c-8.233-3.68-3.349-6.138-25.708-14.455
        c-2.941,2.248-6.245,4.474-10.163,3.577c-0.397-0.375-1.215-1.124-1.612-1.487c-28.369-7.964-6.004-2.632-43.695-13.047
        c-8.914,0.988-17.067,5.428-26.105,5.507c-2.775,0.183-31.357,5.574-43.365,10.413c-6.949,2.691-9.141,11.083-16.056,13.842
        c-1.079-2.771-1.181-5.871-2.532-8.494c-6.893-0.704-13.797,0.863-20.689,1.079c-0.84,3.668,0.522,7.245,0.886,10.867
        c-0.079,2.646-1.567,5.984-4.61,6.018c-3.531-3.918-5.314-9.584-10.413-11.9c-3.747-2.203-8.119-0.977-12.15-0.749
        c-3.566-0.545-6.45-4.213-10.288-3.089c-8.198,1.976-13.683,9.527-21.813,11.65c-9.466,0.095-12.124-8.884-45.398,3.27
        c-6.223,2.453-12.173,8.323-19.315,5.916c-9.516-1.578-15.091-11.548-24.822-12.491c-12.114,0.823-9.223,4.261-36.427-0.965
        c-6.858-1.136-14.148,0.761-20.609-2.396c-6.336-3.043-13.036-0.204-19.167,1.737c-13.89-4.008-33.681-2.652-37.506-5.984
        c-1.703-4.815-0.602-10.821-4.769-14.614c-3.906-4.883-10.299-5.803-15.67-8.164c-0.815-5.685,9.266-9.481-0.148-13.649
        c-4.644-1.681-9.266-3.429-13.831-5.28c-5.875-4.807-7.588-24.126-20.292-40.935c-2.169-4.519-6.336-8.085-7.188-13.161
        c-0.534-3.27,3.316-4.837,3.656-7.801c-2.91-3.749-17.87-13.166-25.095-19.792c-2.18-1.942-6.654-3.917-8.391-0.454
        c-1.487,2.771-3.917,4.621-6.961,5.405c-4.065-2.112-8.505-4.008-11.355-7.756c-1.703-1.976-2.782-4.599-5.133-5.882
        c-4.201-0.84-8.55-0.806-12.797-0.715c-3.77,0.84-7.063,3.702-11.117,2.498c-21.648,1.393-43.942,6.888-62.374,18.327
        c-0.545,0.136-1.646,0.42-2.192,0.568c-2.805,2.067-6.018,3.668-8.221,6.438c-0.534,0.08-1.59,0.238-2.124,0.318
        c-3.236,3.111-7.131,5.439-10.356,8.539c-3.656-0.443-6.268,1.942-8.63,4.326c-3.656,0.988-5.939,4.338-9.447,5.632
        c-5.927,3.6-9.527,9.89-11.208,16.465c-2.373,6.45-9.97,6.813-15.5,8.857c-6.367,1.746-7.742,8.954-11.185,13.149
        c-0.114,1.261-0.216,2.521-0.295,3.781c-1.931,1.964-3.475,4.235-4.803,6.631c-3.634,3.236-6.563,7.188-9.107,11.298
        c-2.135,1.771-3.622,4.11-5.439,6.154c-2.396,2.714-5.893,4.19-8.017,7.154c-4.145,5.462-10.072,9.368-13.479,15.409
        c-2.078,0.568-4.485,0.59-6.064,2.214c-17.783,16.535-18.337,17.063-18.441,19.553c5.519,1.578,11.23,2.464,16.942,3.077
        c3.793-0.079,7.699-0.749,11.332,0.84c5.189-1.612,9.913-4.474,15.25-5.689c3.565-0.931,7.188-2.01,10.254-4.156
        c4.256-2.981,30.12-12.918,31.953-8.289c1.374,2.555,1.658,5.587,3.27,8.04c3.747,2.419,8.301,2.35,12.593,2.112
        c0.295,3.066,0.42,6.507,2.952,8.709c9.304,9.265,7.728,1.956,25.322,2.884c2.521,2.862,5.394,5.394,8.255,7.926
        c-0.806,3.827-1.385,7.755-2.714,11.435c-2.101,1.976-5.098,2.782-6.983,4.962c1.192,2.612,3.384,4.576,4.837,7.04
        c0.239,2.271,0,4.565,0.216,6.859c1.307,3.723,8.794,12.529,3.895,12.638c-20.038,3.742-14.008,0.715-20.314,5.019
        c1.056,7.222,1.862,14.5,1.567,21.813c-3.259,2.305-7.619,1.681-11.06,0.159c-7.074-3.168-14.41,0.818-21.688,0.659
        c-11.559,3.032-23.346-0.057-35.031-0.08c-4.974-0.386-10.015,0.454-14.875-0.829c-3.997-0.772-7.858,1.669-11.844,0.749
        c-4.303-0.784-8.8-0.409-12.911-2.078c-3.724-1.351-7.721-0.522-11.559-0.806c-4.599-0.068-8.8-2.589-13.411-2.316
        c-6.518,0.204-12.945-1.771-19.44-0.432c-7.29-0.261-14.716-1.59-21.518-4.303c-1,0.202-71.854,5.76-79.202,9.777
        c-2.725,2.453-5.087,5.916-9.289,4.905c-2.43-1.885-5.382-2.725-8.119-3.94c-1.635-1.84-2.544-4.565-5.042-5.428
        c-4.122-1.204-8.63-0.318-12.638-1.987c-2.01-3.441,0-9.561-5.03-10.629c-10.583-0.25-19.928-6.79-30.636-6.223
        c-2.169,0.227-5.36-0.761-6.677,1.499c-4.083,23.429,2.526,24.59-7.812,29.864c-1.749,1.317-3.191-0.954-4.429-1.897
        c-19.114-20.018-23.533-19.032-21.03-25.833c7.576-19.317,6.118-25.182,17.93-32.26c3.1-1.817,5.541-4.906,9.3-5.451
        c10.356-2.067,19.122-11.571,19.008-22.358c0.273-4.758-2.237-9.016-2.816-13.615c2.26-3.622,6.257-6.677,5.859-11.412
        c0.102-8.471-9.55-15.625-17.464-11.821c-4.803,1.726-6.472,6.824-8.857,10.799c-8.199,1.878-16.404-0.998-26.037,16.806
        c-0.863,2.612-2.623,0.67-2.816-0.999c-0.59-0.023-1.76-0.057-2.339-0.068c-0.545-1.737-1.885-2.6-3.52-3.043
        c-0.068-0.568-0.182-1.703-0.25-2.271c-1.783-0.67-3.531-1.374-5.291-2.055c-3.634-6.359-10.583-9.538-16.499-13.342
        c-4.281,0.784-7.96-1.646-11.843-2.907c-8.456,9.887-8.522,6.422-4.622,14.557c-0.92,5.803-3.588,11.355-7.88,15.409
        c-3.475,2.646-8.142,0.545-12.002,1.737c-2.782,1.351-4.86,4.871-3.543,7.903c0.965,2.941,4.622,2.964,6.904,4.474
        c-0.55,4.338-7.403,15.296-12.298,16.556c-13.95,4.731-17.161,22.384-28.297,33.656c-4.792,2.316-10.242,3.123-14.852,5.905
        c-41.864,23.646-56.302,74.331-101.254,133.287c-16.596,0.338-108.034-44.302-189.574-29.251
        c-9.202,1.14-54.133,3.758-91.534,18.566c-9.052,1.961-41.973,12.964-48.032,15.557c-25.759,10.823-33.429,9.408-38.562,16.919
        c5.95,3.043,12.57,4.281,18.929,6.132c69.889,16.689,29.223,2.274,161.39,2.169c8.914-0.238,16.136-6.665,24.913-7.71
        c59.123-7.131,112.157,26.421,117.117,32.362c0.773,9.838-131.984,142.778-132.741,143.779c-1.09,0.091-2.18,0.204-3.248,0.318
        c-3.838,4.145-7.892,8.108-12.547,11.332c-4.849-2.45-19.301-16.155-20.269-17.248c-1.999-2.952-4.406,0.863-6.052,2.192
        c-5.757-0.67-9.686-4.928-13.74-8.562c-4.769-2.669-9.686-5.121-13.774-8.846c-1.703,1.681-3.373,3.395-5.008,5.144
        c-3.656-0.886-7.483-2.01-9.788-5.212c-2.703-3.883-7.801-3.622-11.719-5.428c-2.532-1.045-4.735-2.929-7.472-3.372
        c-1.967,1.89-3.989,9.973-15.273,0.193c-3.089-2.907-7.653-1.374-11.332-2.646c-2.612-0.965-5.144-2.226-7.971-2.419
        c-0.772,1.749-1.544,3.509-2.294,5.28c-2.044,0.068-4.111,0.352-6.12-0.034c-3.418-0.84-5.462-4.667-9.141-4.724
        c-2.816,0.352-5.655,1.874-8.482,0.795c-2.827-0.909-5.666-1.874-8.641-2.033c-0.534,2.146-1.067,4.292-1.522,6.472
        c-4.235,1.953-8.755,0.431-11.957-2.634c-2.669-2.498-6.382-0.795-7.915,2.044c-4.338-0.284-8.573-1.385-12.911-1.59
        c-0.625,2.191-0.749,4.61-1.862,6.643c-3.043,1.624-7.017,1.408-9.868-0.557c-3.089-2.214-8.63-1.839-9.061,2.76
        c-4.326,1.317-8.63-0.545-12.979-0.602c-0.522,2.566-0.182,5.496-1.828,7.71c-2.896,1.942-6.756,1.556-9.641-0.204
        c-2.328-1.737-4.985-0.136-7.301,0.681c-0.023,1.431-0.034,2.873-0.034,4.338c-4.735,1.737-9.686-1.011-14.319,0.988
        c-0.318,2.941,1.181,7.96-2.896,8.834c-4.088,2.362-7.869-2.975-11.855-0.613c-3.338,0.874-1.851,4.769-2.214,7.279
        c-4.156,1.828-8.573-1.033-12.65,0.522c-2.055,2.714-0.681,6.416-1.011,9.584c-2.43,0.784-4.996,2.294-7.551,1.101
        c-2.464-1.033-5.246-0.942-7.324,0.897c-0.341,2.578,0.068,5.189,0.193,7.778c-3.6,1.885-7.46,0.329-11.208,0.602
        c-4.871,1.306-1.419,6.631-1.192,9.981c-2.373,1.431-4.917,3.713-7.869,2.419c-2.771-1.294-5.473-0.034-7.347,2.101
        c0.375,2.373,1.953,4.451,2.078,6.87c-2.487,2.782-6.279,3.668-9.709,2.157c-1.896,0.693-3.679,1.669-5.11,3.111
        c1.272,2.589,2.362,5.28,2.941,8.119c-2.998,2.578-6.79,2.725-10.504,1.998c-1.09,1.226-2.555,2.282-3.02,3.952
        c0.545,2.634,3.759,6.268,0.556,8.323c-3.997,2.419-9.765,0.579-12.672,5.11c1.306,2.657,4.042,5.655,2.396,8.766
        c-2.203,1.93-5.485,1.033-7.96,2.305c-1.34,0.999-2.351,2.351-3.463,3.6c1.363,1.999,2.714,4.008,4.042,6.041
        c-0.965,1.226-1.828,2.566-2.941,3.69c-3.736,1.067-8.346,1.578-10.447,5.348c-0.023,1.771,1.158,3.248,1.896,4.803
        c0,0.772-0.023,2.305-0.034,3.077c-3.27,2.453-8.448,3.861-8.562,8.778c1.658,1.783,2.975,3.849,4.054,6.041
        c-2.453,5.212-9.777,4.076-11.991,9.425c-1.192,1.601,1.192,3.032,1.771,4.463c0.874,4.962-5.394,5.95-6.348,10.231
        c-1.215,2.873,2.26,4.485,3.986,6.086c-0.284,1.771-0.057,4.02-1.715,5.235c-3.123,2.305-7.404,3.622-8.868,7.619
        c0.295,2.362,1.794,4.565,1.476,7.017c-1.488,3.259-3.952,6.166-3.952,9.947c1.681,1.113,3.69,1.942,4.996,3.566
        c1.686,7.951-6.626,5.393-9.311,14.546c3.872,4.86,0.329,10.606,0.011,16c3.327,1.249,7.154,3.917,5.246,8.028
        c-2.714,3.52-7.052,6.45-7.097,11.389c0.772,1.885,1.908,3.611,2.578,5.564c0.079,3.043-0.568,6.086-0.42,9.152
        c1.351,0.886,2.873,1.488,4.372,2.123c4.051,9.436-3.658,8.419-4.394,16.056c-0.704,3.213,2.975,5.121,3.384,8.108
        c0.409,2.43-0.057,5.064,0.874,7.415c2.339,1.567,6.279,1.635,6.836,5.042c1.442,4.962-4.792,7.619-4.61,12.4
        c-0.704,2.952,1.828,5.053,3.327,7.256c2.01,2.419,2.26,5.689,3.032,8.63c2.737,1.181,7.165,1.181,7.449,4.985
        c0.397,4.326-4.099,7.631-3.384,12.127c-0.091,3.759,3.566,5.587,5.984,7.756c1.329,1.839,2.067,4.054,3.372,5.927
        c2.044,1.272,5.155,1.272,6.302,3.702c2.589,5.121-2.725,10.481,0.045,15.67c0.704,4.565,6.609,3.145,8.289,6.824
        c1.567,3.906,6.711,3.69,8.619,7.256c3.282,4.588-1.079,10.946,2.782,15.329c1.942,3.236,6.506,2.169,8.88,4.826
        c3.191,3.622,9.016,4.826,10.367,9.947c1.033,4.508,1.749,9.527,5.348,12.843c2.055,0.625,4.281-0.159,6.393-0.272
        c4.145,3.259,9.084,5.734,12.241,10.106c2.464,3.656,3.497,8.267,6.904,11.287c3.055,3.6,8.108-0.261,11.798,1.953
        c7.926,4.383,12.831,12.423,19.803,17.975c1.896-1.26,3.793-2.51,5.746-3.679c3.134,1.068,6.154,2.566,8.494,4.985
        c3.781,3.986,9.277,5.541,13.308,9.209c1.408,1.011,2.646,2.555,4.485,2.793c2.634-0.727,3.793-4.406,6.893-3.781
        c2.839-0.443,4.383,2.328,6.359,3.827c4.519,4.27,11.355,3.986,16.249,7.642c2.464,1.726,5.723,4.179,8.573,1.646
        c5.246-4.167,10.912,1.567,16.465,1.862c5.098-0.125,9.47,2.578,14.239,3.906c0.704-1.601,1.294-3.191,2.282-4.599
        c7.952-3.699,7.386,6.888,22.256,2.339c3.191,1.192,6.461,2.169,9.845,2.691c1.226-2.055,1.999-4.974,4.712-5.473
        c3.713-1.59,6.541,2.487,10.129,2.759c3.372,0.84,6.211-1.431,9.22-2.441c3.815,0.488,7.494,1.84,11.367,2.169
        c0.928-13.567,10.708-3.207,16.976-4.826c1.488-1.431,2.998-2.828,4.474-4.247c3.895-0.125,7.653,1.272,11.548,1.067
        c1.408-2.475,1.374-6.052,4.201-7.449c3.429-2.248,6.87,1.669,10.481,1.192c4.235,0.397,3.713-6.609,7.903-6.325
        c3.77,0.352,7.528,1.135,11.344,0.67c0.193-2.135,0.363-4.258,0.522-6.359c1.749-1.465,3.452-4.11,6.098-3.043
        c3.293,1.147,6.711,0.943,9.561-1.204c0.307-2.055-0.102-4.894,2.316-5.802c4.428-0.886,9.345,1.533,13.41-1.204
        c-0.977-3.1-1.238-6.779,1.567-9.016c1.703-2.373,4.542-1.056,6.563,0.045c1.805-0.806,4.19-0.988,5.36-2.771
        c0.273-1.374,0.5-2.736,0.67-4.088c0.874-1.26,1.771-2.498,2.668-3.724c4.19,0.295,9.22,0.976,12.071-2.918
        c-4.784-11.009,5.572-6.84,9.482-9.856c4.758-2.112,0.806-9.016,5.655-11.366c3.35-0.488,7.108-0.114,9.845-2.555
        c0.148-3.077-0.329-6.234,0.897-9.152c3.372-1.101,7.176-1.601,9.936-4.008c0.477-2.248-0.727-4.474-0.318-6.699
        c2.878-7.787,4.343-1.329,13.365-7.744c-2.391-14.166,4.148-8.905,7.097-13.07c2.566-2.385-1.556-5.814,0.295-8.607
        c1.226-5.973,8.755-4.553,11.934-8.766c-1.919-3.214-1.851-6.836-0.659-10.265c0.852-0.034,2.555-0.114,3.418-0.159
        c1.306-1.624,2.6-3.248,3.883-4.883c-3.626-6.23-3.026-3.87-1.374-10.787c2.464-1.033,4.951-2.01,7.472-2.884
        c0.818-1.147,1.658-2.26,2.498-3.373c-3.35-13.159,3.798-9.998,4.145-16.885c-4.133-2.294-3.168-7.017-1.658-10.651
        c3.441-0.863,6.336-3.259,7.949-6.404c-0.352-2.691-1.34-5.348-0.943-8.062c0.715-2.839,2.725-5.167,3.236-8.051
        c-0.988-1.635-2.351-2.975-3.384-4.542c-1.204-10.48,3.857-5.687,8.039-15.568c-2.532-4.701-1.238-9.845-0.784-14.818
        c-1.805-2.498-4.883-4.531-4.156-8.073c-0.92-4.542,4.417-5.757,5.7-9.391c2.373-3.758-1.749-7.29-1.533-11.162
        c-0.556-2.839,1.102-6.745-2.01-8.46c-2.68-1.817-3.191-5.416-3.077-8.391c9.271-13.949,3.182-6.27,0.238-23.982
        c-11.586-5.697-1.586-14.127-2.441-22.29c-3.724-2.112-5.382-6.041-6.609-9.913c-0.443-1.896-2.555-2.135-3.986-2.918
        c-3.918-5.178-1.612-11.378-1.09-17.146c0.636-4.406-5.076-4.781-6.416-8.301c-4.683-9.926-11.656-4.127-8.528-23.993
        c2.646-3.622,6.086-6.586,9.164-9.845c2.884-3.191,7.653-2.328,11.469-3.168c2.248-1.567,3.645-4.008,5.394-6.064
        c32.942-42.44,108.743-114.273,113.926-118.184c8.309,11.444,19.864,67.232,22.619,81.064
        c20.772,107.601-4.797,78.161,40.992,119.252c1.953,1.499,2.782,4.588,0.307,6.052c-29.341,26.677-21.522,40.472-23.914,63.725
        c-1.794,11.117,5.564,24.777,17.816,25.186c6.552,0.92,12.127-3.384,18.441-4.122c0.17,6.052-0.886,12.093-0.477,18.157
        c0.091,4.553,4.304,7.835,4.27,12.434c1.381,52.122,39.925,75.226,43.944,87.559c2.453,1.84,5.428,3.293,6.893,6.166
        c1.59,3.463,5.712,4.281,8.232,6.915c19.389,17.354,38.739,25.724,120.33,37.154c8.005,0.874,15.136,4.894,22.29,8.289
        c9.161,1.871,49.181,9.687,59.944,9.981c0.715,0.704,1.442,1.442,2.191,2.192c1.806,0.023,3.634,0.068,5.485,0.125
        c1.079-2.43,1.522-5.587,4.031-7.018c1,0.012,20.618,2.876,24.402,4.633c3.133,1.396,18.392,9.022,19.542,12.241
        c0.818,4.077,0.579,8.414-1.033,12.298c-2.317,5.223-0.874,11.991,3.872,15.386c3.668,3.032,8.675,2.441,13.058,3.452
        c8.846,2.067,16.431,7.267,24.357,11.446c8.892,4.077,17.337,22.628,30.386,14.307c10.074-6.269,4.969-17.367,6.654-22.301
        c4.667,0.443,4.803,6.052,8.607,7.744c10.599,5.388,2.313,3.772,14.671,9.379c1.805,2.6,2.986,5.961,6.313,7.074
        c5.473,2.112,8.085,7.733,10.435,12.706c1.011,1.987-0.545,3.929-1.34,5.7c-3.293,5.428-3.656,11.968-3.77,18.157
        c0.307,2.146-1.828,3.225-3.043,4.599c-4.156,3.1-3.259,8.948-3.713,13.513c-0.625,4.258,4.883,6.972,3.27,11.276
        c-4.974,13.933,2.075,20.073-3.043,25.027c-2.146,2.089-2.93,5.053-2.123,7.971c0.863,3.747,0.409,8.323,3.406,11.196
        c1.135,1.363,3.021,2.6,2.578,4.701c-0.84,5.939,0.227,11.911,2.26,17.521c2.18,4.86-3.202,9.288-1.476,14.171
        c1.306,4.678,2.612,9.629,6.12,13.229c3.656,3.679,3.974,9.073,5.905,13.66c1.601,4.19,4.292,8.255,3.861,12.956
        c-0.011,2.487-0.897,5.189,0.431,7.528c9.123,18.843,5.958,4.928,16.715,24.118c2.112,3.849,5.609,6.813,7.358,10.89
        c0.432,2.43-0.091,4.928,0.216,7.404c4.388,10.067,13.393,12.917,15.511,15.25c19.316,19.724,12.422,12.463,17.294,23.914
        c8.204,10.669,13.952,9.106,17.884,11.378c4.292,2.385,7.756,5.961,11.911,8.596c3.202,2.044,5.996,4.826,7.574,8.357
        c4.599,12.078,21.689,9.817,27.718,14.126c6.03,3.849,14.058,5.428,17.816,12.071c1.713,3.254,11.785,7.051,18.395,5.643
        c8.21-1.544,15.216,4.077,22.937,5.746c6.493,0.785,7.604,8.516,21.563,7.324c3.395-0.715,6.461-2.964,10.061-2.703
        c38.281,3.234,16.765,7.059,37.461,6.245c4.974-0.125,8.63-4.179,13.479-4.815c5.689-0.818,11.491-0.704,17.214-1.431
        c2.623-0.136,5.53-1.135,7.926,0.511c3.793,2.612,8.437,0.363,12.479-0.409c5.008-1.113,7.177-7.074,12.434-7.653
        c7.313-0.908,14.182-4.303,21.677-3.883c8.425,0.511,16.431-4.088,21.927-10.231c3.009-3.452,7.597-4.61,11.469-6.779
        c3.838-1.862,7.438-4.826,11.923-4.758c7.712-0.204,15.827-7.6,17.6-11.639c1.919-4.145,5.201-7.426,9.05-9.834
        c6.03-3.872,11.185-10.061,18.781-10.662c16.345-12.195,4.135-14.281,26.026-32.09c4.565-4.099,10.606-6.824,13.308-12.672
        c3.872-4.826,1.011-11.877,5.326-16.476c4.803-5.598,6.484-13.547,12.65-17.964c5.837-4.44,8.891-12.491,7.506-19.679
        c-0.715-4.497,1.749-8.505,3.327-12.502c1.658-3.906,2.339-8.13,4.065-12.002c1.556-3.611,5.575-5.553,6.666-9.425
        c3.578-12.22-1.227-13.501-0.568-19.36c0.488-5.78,2.328-11.366,2.543-17.18c-0.011-3.009,1.488-5.666,3.146-8.062
        c7.193-9.583-2.533-21.446-2.135-29.274c0.102-6.302-2.112-12.979,0.761-18.929c2.203-5.564,1.181-11.821-0.761-17.294
        c-1.533-4.281-5.961-6.893-6.87-11.457c-6.551-29.596-3.762-15.868-3.191-28.479c-3.867-15.469-9.645-12.253-11.775-17.782
        c-1.601-3.747-2.589-7.756-4.599-11.31c-2.101-4.02-5.394-7.971-4.815-12.797c0.976-5.189-2.703-9.47-5.7-13.217
        c-2.464-3.441-7.358-3.724-9.697-7.245c-1.93-2.737-3.191-5.882-5.178-8.551c-2.509-3.531-5.995-6.552-6.995-10.924
        c-1.442-6.586-6.12-12.071-11.843-15.409c-2.782-0.886-5.927-1.226-7.96-3.531c-25.551-26.362-9.323-7.24-19.576-22.483
        c-8.916-9.946-14.127-6.527-17.987-8.04c-3.032-1.805-5.121-4.803-8.051-6.734c-3.475-2.532-7.608-3.804-11.332-5.825
        c-6.117-3.036,1.009-6.809-15.398-11.457c-2.918-1.124-5.802,0.613-8.732,0.443c-2.441-0.704-4.406-2.396-6.461-3.759
        c-5.882-4.304-14.148-3.634-19.508-8.846c-4.224-4.656-10.878-4.508-16.613-5.382c-3.509-0.59-6.824,2.362-10.242,0.738
        c-5.076-1.817-10.367-3.021-15.772-2.805c-7.577,0.959-5.376-7.64-22.71-4.553c-2.589,0.556-4.201,3.202-6.79,3.645
        c-3.895-0.454-7.449-2.816-11.446-2.339c-3.849,0.057-7.495,1.34-11.276,1.76c-3.793,0.318-6.359-3.679-10.095-3.372
        c-5.507,0.806-12.036,1.601-14.83,7.131c-4.712,0.59-9.55-0.886-14.171,0.579c-5.303,1.09-10.492,4.519-15.988,2.51
        c-5.121-1.76-9.868,1.715-14.183,3.986c-3.213,1.533-3.611,7.006-7.79,6.495c-6.484-0.488-12.502,2.827-17.158,7.052
        c-9.649,6.907-7.153-7.527-22.245,8.346c-0.954,1.885-1.442,3.963-2.089,5.973c-1.344,0.403-14.123,1.414-19.61,12.513
        c-2.998,1.771-6.279,0.806-9.447,0.329c-4.928,1.567-6.529,9.47-12.547,8.017c-2.827,0.114-4.712-2.033-6.472-3.872
        c-2.759-3.179-7.472-3.304-10.435-6.223c-1.999-1.942-4.531-3.032-7.188-3.622c-1.011-4.553,0.193-9.152,0.352-13.717
        c3.083-50.874-13.558-81.951-0.363-84.221c25.81-1.601,51.689-2.691,77.567-2.918c166.342-26.679,239.58-33.117,246.702-55.731
        c2.128-6.618,9.708-37.036,4.701-41.48c-3.992-3.718-32.363-24.645-46.874-26.492c1.556-4.724,6.881-4.917,10.912-6.109
        c63.988-14.424,96.394-20.809,173.927-10.345c73.369,9.458,77.492,17.81,121.522,15.193c-2.089-1.453-4.315-2.657-6.541-3.804
        c-3.77-0.454-7.37-1.692-10.946-2.827c-47.817-20.61-238.767-63.915-283.277-69.539c0.08-2.044,0.182-4.099,0.341-6.12
        c-8.191-13.517-126.597-20.635-142.552-21.2c1.624-3.259,2.18-6.927,3.52-10.265c7.597-6.643,15.738-12.672,23.812-18.736
        c8.141-0.883,17.031-10.383,31.908-9.924c2.407-0.204,5.292,0.318,7.267-1.487c1.409-1.286,29.091-37.905,33.952-45.477
        c66.816-105.312,43.302-48.225,47.305-108.226c-0.727-12.127,0.488-24.311-0.216-36.439c-0.169-10.808-9.033-10.194-5.144-23.619
        c7.619,0.193,14.796,3.055,22.302,4.099c48.275,8.645,127.3-0.047,161.016-12.582c11.628-4.905,24.856-4.508,36.2-10.254
        c2.669-1.306,4.508-4.201,7.404-4.951c3.145,0.67,8.176,0.045,9.073,4.054c3.055,11.276,4.52,23.085,9.618,33.725
        c1.794,4.962,5.723,9.629,4.451,15.227c-0.942,3.248,2.362,5.314,3.463,8.039c2.26,5.689,3.599,12.15,1.658,18.134
        c-1.817,5.984,4.712,9.641,7.222,14.296c0.114,3.202,0.693,6.359,1.147,9.55c-0.715,3.236-2.737,6.007-3.452,9.243
        c1.59,7.824,3.543,15.602,4.724,23.528c1.64,12.489-3.929,22.351,22.846,49.531c5.201,5.257,12.184,8.982,19.656,9.379
        c12.916,0.806,14.019,6.466,28.831,2.055c7.674,2.208,5.072,12.26,24.448,13.615c10.516,1.344-0.88-2.189,26.094,9.936
        c3.077,1.306,5.348,3.906,8.301,5.473c2.123,0.397,4.326,0.261,6.529,0.375c9.731,4.429,20.371,6.677,30.818,8.732
        c15.14-2.975,17.057,5.981,21.654,9.992c4.497,4.088,7.96,9.629,13.706,12.139c1.896-0.079,3.736-0.522,5.655-0.784
        c-0.318,2.407-0.284,4.917-1.033,7.267c-1.783,3.804-4.712,6.995-6.166,10.958c-0.375,2.714,1.908,6.12-0.784,8.176
        c-7.233,6.359-15.625,11.412-22.222,18.52c-27.154,23.934-22.628,19.016-31.193,37.052c-6.174,27.997,31.065,41.708,85.356,17.146
        c25.327-13.776,16.8-13.279,40.288-30.114c6.794-5.906,29.328-21.051,37.688-20.871c6.211,0.045,11.787-3.009,16.556-6.745
        c13.39-10.314,52.521-28.858,29.308-72.503c-2.43-4.667-7.199-7.154-11.139-10.299c-4.746-3.509-8.993-7.642-13.842-10.992
        c-2.93-2.203-6.813-1.476-10.106-2.498c-3.373-1.794-5.962-4.678-8.993-6.938c-6.211-5.155-13.819-8.176-20.371-12.809
        c-1.624-1.783-2.203-4.304-3.963-5.95c-3.736-3.634-9.084-4.985-12.74-8.698c-5.439-4.883-8.164-12.127-14.137-16.454
        c-4.258-2.987-7.029-7.483-10.924-10.833c-2.623-2.339-5.416-4.451-8.107-6.677c-3.271-2.612-3.884-7.29-7.29-9.731
        c-3.214-2.453-6.665-4.588-9.504-7.46c-5.269-5.939-14.512-6.336-21.473-3.543c-3.021,1.181-6.12-0.239-8.868-1.408
        c-22.266-10.307-28.453-10.511-46.601-9.141c-10.691,1.099-9.644-15.32-11.934-24.312c-1.953-7.801-9.039-12.672-12.07-19.883
        c-1.851-4.406,0.874-8.948,0.67-13.422c-3.717-16.948,3.344-32.669,5.78-57.866c2.114-25.474,38.554-36,64.997-41.719
        c56.189-10.344,47.279-5.712,55.799-7.029c15.715-1.886,23.921-9.031,34.134-8.959c6.5,0.426,20.441-9.273,28.91-10.833
        c30.068-5.558,35.307-17.861,43.524-24.924c0.821-1.002,17.971-23.693,20.541-28.252c3.804-6.506,8.38-13.547,7.233-21.45
        c-2.237-12.23,4.803-23.392,5.791-35.36c-0.068-4.11,3.634-6.45,5.769-9.481c3.032-3.815,3.293-8.846,4.792-13.308
        c2.294-3.429,6.166-5.78,7.438-9.913c0.342-1,10.899-38.43,17.498-55.901c3.236-8.46,8.096-16.204,10.765-24.891
        c0.795-2.964,3.509-4.678,5.541-6.768c2.998-2.839,5.03-6.484,7.188-9.981c0.011-1.84-0.034-3.69,0.295-5.496
        c1.113-1.453,2.668-2.498,4.042-3.736c1.002-0.814,10.536-15.101,12.865-20.973c0.897-2.668,3.168-4.451,4.667-6.756
        c2.453-7.054-1.611-5.941,8.834-11.503c6.608-2.941,11.65-8.38,18.123-11.594c3.565-1.601,5.666-4.985,7.642-8.187
        c5.314-2.362,6.188-8.789,10.878-11.798c22.36-15.789,2.888-8.628,30.057-20.644c11.948-5.535,19.564-1.56,30.965-13.831
        c2.737-3.021,6.325-5.178,8.868-8.38C2379.957,76.338,2373.507,72.489,2369.93,68.435z M128.175,1109.111
        C51.707,976.77,148.706,784.686,331.716,804.077c24.255,2.57,75.374,14.641,86.482,35.848c-2.441,3.895-6.132,6.858-8.55,10.821
        c-2.761,4.524-3.453,3.044-26.22,25.133c-80.793,78.386-75.368,76.586-81.52,78.012c-2.645,0.613-30.492-0.921-54.633,20.334
        c-8.831,7.775-10.703,10.982-5.231,27.59c3.319,10.072,5.299,10.101,12.999,14.555c6.213,3.594,8.415,14.582,22.298,14.237
        c12.14-0.302,23.981-6.798,34.873,13.669c4.089,7.684,8.627,14.581,13.253,21.911c-0.053-0.084,1.551-0.324,1.737-0.3
        c1.149,5.648,6.418,8.451,11.933,8.629c19.974,0.644,33.171-20.217,41.805-31.127c17.825-22.525,23.21-9.198,41.743-56.224
        c10.12-14.096,21.961-21.99,50.957-53.466c6.446-6.998,7.758-7.965,12.928,0.853c24.26,41.37,14.962,78.276,5.227,113.516
        c-9.252,33.49-22.005,64.895-45.612,90.854C357.085,1236.902,192.527,1220.482,128.175,1109.111z M483.184,774.963
        c-2.816,1.817-6.189,1.306-9.334,1.192c-0.965-1.374-1.942-2.714-2.941-4.02c0.647-4.111,4.508-6.188,7.063-9.027
        c0,0,69.94-71.129,119.104-127.302c2.396-2.668,4.417-5.893,7.653-7.653c3.722,0.789,14.717,8.786,15.443,14.239
        C618.338,646.145,499.673,778.692,483.184,774.963z M748.996,969.011c-4.485,1.658-9.391-4.304-6.257-8.255
        c3.009-4.542,6.881-9.459,12.309-11.026c-0.931,3.963-4.326,6.597-5.791,10.333C751.506,962.663,751.665,966.603,748.996,969.011z
         M759.295,908.034c-1.501,1.401-16.527,11.292-21.086,12.513c-0.641-3.437,0.135-22.285,2.101-26.878
        c1.101,0,2.214,0.011,3.35,0.045c4.678,1.51,9.641,1.851,14.41,2.998C761.112,899.449,759.67,904.423,759.295,908.034z
         M775.068,447.038c-66.342,72.008-81.507,92.295-81.507,92.295c-5.267,6.793-33.532,29.407-36.927,33.464
        c-1.726,2.339-6.609,1.306-6.438-1.953c0.828-5.275,27.25-37.529,30.557-47.601c2.033-6.189,7.256-10.492,10.004-16.295
        c13.835-25.72,37.974-63.04,66.064-70.935c5.042-1.215,6.223,5.712,10.401,6.949c2.555,0.602,5.212,0.545,7.846,0.624V447.038z
         M958.51,480.581c1.851,2.248,1.374,6.302-0.772,8.232c-12.633,0.591-13.108-6.807-15.727-11.65
        C947.813,475.38,953.343,478.242,958.51,480.581z M822.248,358.116c3.838-3.123,8.959-1.181,13.127,0.08
        c4.61,3.293,9.175,6.677,14.001,9.663c0.011,0.829,0.011,2.487,0.011,3.316c-2.282,0.295-4.599,0.852-6.904,0.568
        c-5.056-4.402-1.319-6.973-22.506-8.55C820.5,361.432,820.341,359.07,822.248,358.116z M792.748,1002.86
        c-0.784,0.034-2.362,0.102-3.145,0.136c-2.453,3.089-2.532,8.391-6.427,9.97c-1.726-3.713-3.282-7.687-3.35-11.809
        c1.771-3.895,5.678-8.891,10.492-6.393c0.148,0.738,0.42,2.226,0.556,2.964c0.602,0.409,1.794,1.226,2.396,1.635
        C793.077,1000.51,792.907,1001.679,792.748,1002.86z M793.338,429.789c-0.715-0.17-2.135-0.5-2.85-0.67
        c0.034-1.374-0.5-2.85,0.125-4.133c2.192-4.338,5.428-8.21,6.779-12.934c2.382-17.494-6.519-2.959,12.695-35.462
        c1.612-3.622,6.052-2.782,9.254-3.35c2.123-0.011,4.576-0.942,6.529,0.284c1.805,2.532,0.25,5.996,1.59,8.721
        c1.294,1.737,3.418,2.555,5.008,4.008c0.091,2.203-0.829,4.292-1.079,6.473c0.295,1.76,2.487,2.078,3.679,3.123
        c0.011,1.056,0.034,2.112,0.079,3.191c-6.745,5.076-11.605,12.195-18.316,17.305c-3.509,2.805-4.622,7.869-8.823,9.936
        c-2.339,0.159-4.633-0.42-6.938-0.397C798.357,426.905,795.904,428.484,793.338,429.789z M799.368,438.363
        c4.97-2.765,26.598,6.356,30.682,8.301c2.487,0.636,1.76,4.224,0.227,5.564c-2.771,2.975-7.029,1.045-10.265,0.068
        C803.789,446.297,796.185,444.521,799.368,438.363z M803.796,864.282c2.657,5.609,2.26,12.275,1.84,18.339
        C799.129,878.771,802.15,870.073,803.796,864.282z M802.82,1097.46c6.805-3.2,6.28,3.481,11.435,6.688
        c3.1,1.805,3.123,5.734,3.759,8.868C808.026,1115.473,803.297,1100.201,802.82,1097.46z M819.409,982.16
        c-3.815,0.738-7.812-0.704-11.684-0.908c-1.862-3.066-4.996-6.291-3.702-10.163C806.13,964.335,830.783,963.565,819.409,982.16z
         M836.181,876.818c-25.743,4.58-15.053,0.948-24.913,5.326c-0.932-3.808-2.177-28.958-0.829-37.994
        c3.997,4.564,23.425,25.086,26.469,31.011C836.726,875.581,836.363,876.41,836.181,876.818z M822.578,438.158
        c-4.781-2.123-10.379-2.737-14.614-5.848c-0.227-4.292,4.587-7.472,8.289-8.948c3.452-1.09,5.485-4.122,7.756-6.7
        c5.382-4.428,10.969-8.743,15.443-14.137c4.235-2.294,8.46-4.678,13.365-5.223c2.044-2.01,0.386-5.723,1.669-8.289
        c6.652-2.782,12.769,1.423,6.45,10.027c-6.018,7.551-8.312,17.339-14.546,24.72c-1.351,6.802-1.51,14.671-6.995,19.679
        C833.365,443.393,828.21,439.816,822.578,438.158z M851.579,821.144c-1.306,1.703-3.611,1.93-5.496,2.578
        c-0.318-2.725,0-7.767,3.849-7.267C852.521,816.102,852.101,819.52,851.579,821.144z M857.971,851.371
        c-0.977,1.556-2.918,1.783-4.463,2.43c-2.634-6.325,4.629-16.975,6.507-19.111C861.594,840.198,861.162,846.512,857.971,851.371z
         M870.053,841.209c-0.011,3.588-4.054,4.746-6.836,5.575c-0.295-5.348-0.216-10.719-0.329-16.068
        c-0.432-3.168,4.145-3.407,5.746-1.408C871.007,832.772,870.212,837.257,870.053,841.209z M896.704,579.791
        c-5.227,7.007-5.385,6.682-2.078,13.513c-3.202,0.125-6.314,0.863-9.47,1.17c-4.69-0.977-9.095-2.93-13.649-4.326
        c-3.395-0.84-4.44-4.939-4.871-7.914c1.59-4.36,2.441-9.3,5.95-12.627c12.131-12.799,31.063-17.914,44.819-7.142
        c10.728,8.332,8.402,24.566,3.18,22.676C913.631,583.151,909.751,577.624,896.704,579.791z M931.939,980.865
        c0.102,0.522,0.307,1.567,0.397,2.078c-3.815,3.44-9.107,6.109-10.322,11.559c-0.625,3.055-1.794,6.211-5.473,6.302
        c-1.158-7.426,2.067-14.341,5.689-20.553C925.376,979.367,928.805,980.082,931.939,980.865z M905.743,1149.035
        c2.078-4.247,4.905-8.766,9.095-11.06c4.008,0.602,8.97,0.114,11.98,3.27c1.215,3.872,1.135,8.13,2.657,11.991
        C921.413,1153.304,913.089,1152.566,905.743,1149.035z M929.441,996.013c-2.907-8.142,13.081-10.197,12.593-1.828
        C937.9,995.059,933.71,996.547,929.441,996.013z M939.899,1151.771c1.249-3.477-1.387-5.223,5.768-4.474
        c0.159,1.533,0.318,3.077,0.488,4.644C944.055,1151.885,941.965,1151.828,939.899,1151.771z M957.272,989.916
        c-2.555,2.305-4.167-2.01-6.143-3.1c-2.952-0.375-5.984-0.329-8.664-1.737c-0.068-0.636-0.204-1.908-0.284-2.555
        c2.895-1.079,3.543-4.031,4.519-6.597c3.656-0.023,7.449,0.091,10.697-1.942c-1.465-2.419-2.964-4.962-5.553-6.302
        c-5.598-1.658-1.397-11.753,3.713-9.97c3.27,0.454,3.191,4.394,3.952,6.915c0.545,4.633,2.703,9.118,2.305,13.831
        c-1.17,2.282-2.975,4.145-4.599,6.098C957.25,986.327,957.363,988.121,957.272,989.916z M958.408,895.327
        c-2.226-1.737-4.769-2.93-7.528-3.418c-0.625-5.541,0.579-11.083,2.385-16.283C960.213,879.339,961.769,888.673,958.408,895.327z
         M954.763,864.918c1.215-2.305,2.646,0.988,3.725,1.703c1.794,1.964,2.226,4.667,2.668,7.211
        C957.113,873.207,953.991,868.927,954.763,864.918z M959.396,1154.962c0.216-2.248,0.704-4.553,2.861-5.7
        c2.203,0.659,4.179,1.862,6.211,2.952c0.114,0.988,0.238,1.987,0.386,3.009C965.686,1155.462,962.518,1155.405,959.396,1154.962z
         M996.913,989.904c-4.081,3.895-7.236-2.539-4.939-9.198c1.033-0.863,2.498-0.681,3.77-0.977
        C996.629,983.012,997.776,986.452,996.913,989.904z M1036.508,1012.149c0.159-0.681,0.5-2.044,0.659-2.725
        c4.803-0.17,9.504,1.022,13.263,4.133c0.057,1.056,0.182,3.191,0.25,4.247C1039.059,1012.747,1045.054,1018.935,1036.508,1012.149z
         M1090.809,1211.59c-3.622-2.93-1.806-8.176-2.021-12.161c4.588,2.986,10.208,4.86,13.308,9.652c1.692,2.453,4.962,2.6,7.392,4.031
        c1.84,2.51,2.93,5.496,4.179,8.357C1103.98,1223.644,1105.134,1224.66,1090.809,1211.59z M1111.123,1208.025
        c-0.784-2.43-1.874-4.917-4.383-5.95c-5.394-2.475-7.971-8.937-14.285-9.709c-2.748-4.235-5.076-9.163-3.054-14.239
        c5.042,3.429,9.595,7.585,14.989,10.515c3.304,2.214,7.665,3.543,9.516,7.392c2.214,4.417,4.633,8.902,5.269,13.887
        C1116.38,1209.796,1113.553,1209.524,1111.123,1208.025z M1196.582,1246.428c-1.51,4.837-1.522,11.105-6.382,14.001
        c-2.101,1.249-3.827,3.191-6.155,3.974c-3.724-0.67-4.939-5.223-8.357-6.438c-1.567-0.715-3.395-0.886-4.724-1.976
        c-1.692-2.169-2.68-5.076-5.405-6.132c-2.918-1.397-5.28-3.599-7.426-5.939c-1.998-2.294-5.496-2.101-7.608-4.213
        c-0.148-2.85,3.134-3.475,5.155-4.372c23.305-7.65,6.928-11.611,37.12,5.666
        C1194.629,1242.158,1197.467,1243.794,1196.582,1246.428z M1206.972,1162.854c-1.016,2.526-3.288,2.232-26.503-12.581
        c-4.996-2.725-6.018-9.289-11.094-11.957c-3.338-2.85-8.323-1.317-11.548-4.235c-34.052-25.026-22.561-10.775-28.308-22.869
        c-1.442-1.419-3.441-2.055-5.053-3.18c-2.217-2.861,6.114-9.143,7.29-9.902c13.455-0.777,11.598,3.38,17.044,4.326
        c4.792,0.749,8.562,4.531,13.513,4.587c4.156-0.363,6.302,4.065,10.231,4.565c3.634,0.761,6.87,2.6,9.981,4.576
        c5.905-0.761,9.379,4.746,14.625,6.155c3.054,0.999,5.462,3.293,8.425,4.531c2.975,0.852,6.915,0.943,8.426,4.213
        C1215.319,1136.745,1208.978,1158.6,1206.972,1162.854z M1215.76,1122.918c-2.736,0.977-4.349-1.828-6.279-3.145
        c-1.385-1.363-3.395-1.612-5.11-2.248c-3.713-1.056-6.291-4.667-10.322-4.769c-3.986,0.08-6.302-3.497-9.595-4.996
        c-3.236-0.852-6.495-1.703-9.209-3.724c-2.362-1.908-5.53-1.283-8.278-1.965c-6.342-3.493-0.685-3.238-12.525-5.484v-3.213
        c2.544-0.261,5.099-0.727,7.46-1.806c1.999-6.961-5.655-10.015-10.969-11.344c0.92-5.848,2.782-11.753,6.291-16.59
        c-0.477-1.692-0.943-3.35-1.408-4.985c-3.554,0.432-7.029-0.17-9.913-2.316c-0.965-1.692-1.17-5.348-4.008-4.258
        c-5.905,1.783-6.393,9.254-11.366,12.071c1.683-12.843,4.302-13.151-1.431-14.932c-3.406-0.534-4.588,3.917-7.642,4.497
        c-3.35-1.26-5.871-4.065-7.608-7.074c-0.409-3.656,1.068-7.188,1.681-10.731c1.181-4.815,0.863-9.788,0.511-14.671
        c3.679,1.442,7.006,3.872,10.992,4.474c40.807,8.363,2.21,1.998,48.475,11.276c3.891,4.596-0.893,6.79,6.892,14.875
        c5.984-4.44,13.865-1.919,20.667-3.861c4.224-0.568,10.367-3.361,13.149,1.34c2.067,4.826,1.113,10.31,0.92,15.42
        C1214.974,1081.958,1220.898,1110.463,1215.76,1122.918z M1317.888,1217.664c0.999-2.642,3.207-4.483,5.759-5.637
        c0.899-2.855,9.834-8.759,12.194-9.554c3.452-0.034,7.79-0.852,10.413,2.033c5.314,5.428,12.979,8.323,20.485,8.845
        c2.6,1.045,4.508,3.259,6.972,4.61c2.544,0.976,5.428,0.976,7.869,2.373c2.85,1.59,5.632,3.622,9.016,3.895
        c3.316,0.295,5.666,3.293,9.073,3.463c4.917,0.352,8.539,4.678,13.638,4.338c2.668-0.193,4.553,1.839,6.631,3.179
        c2.021,1.476,4.644,1.567,6.995,2.305c3.338,0.829,5.995,3.168,8.857,4.974c-0.363,1.783,0.613,4.315-1.022,5.587
        c-2.827,0.852-5.064-1.442-7.347-2.612c-0.034-0.522-0.091-1.556-0.125-2.067c-4.584,11.229-10.224,4.446-12.865,2.646
        c-0.818,2.407-1.522,5.723-4.61,5.995c-3.157,0.829-5.564-1.669-7.903-3.27c-4.894,0.307-9.799,1.283-14.682,0.432
        c-3.956-12.707-12.277-14.249-16.806-5.712c-1.703,2.6-0.5,5.848-0.488,8.744c-6.416,0.011-11.105-4.656-16.079-7.983
        c-1.199,1.399-0.967,3.005-37.778-16.488c-1.613-0.988-3.509-1.726-4.633-3.259
        C1310.539,1221.134,1315.243,1218.531,1317.888,1217.664z M1354.679,1256.091c11.801,6.589,14.308,1.931,13.513,8.482
        c-0.477,3.202-1.431,6.325-2.634,9.334c-7.363-1.852-42.54-27.39-49.894-32.135c-2.6-1.794-5.927-3.361-6.189-6.949
        C1314.554,1235.378,1350.269,1253.526,1354.679,1256.091z M1336.659,1338.473c0,1.006-0.322,1.829-0.826,2.542
        c0.039,2.247-0.733,4.225-2.152,5.818c1.266,0.94,2.201,2.22,2.331,4.006c-1.453,2.135-4.372,2.487-6.677,3.202
        c-4.735,1.385-8.46-2.521-11.957-4.985c-4.417-2.805-5.462-8.539-4.667-13.354c-3.236-2.43-3.032-6.734-1.124-9.913
        c-1.147-5.337-0.647-10.867,0.556-16.124c6.37,1.953,11.957,5.723,17.85,8.755c2.685,1.722,10.31,4.342,6.918,10.386
        c1.404,2.981,0.929,6.03-0.749,8.589C1336.353,1337.714,1336.526,1338.063,1336.659,1338.473z M1312.018,1392.08
        c3.123,2.453,7.336,4.235,8.369,8.494c2.487,1.226,4.905,2.612,7.335,3.985c0.259,0.146,4.288-0.878,5.193-0.772
        c1.694,0.199,3.653,1.026,5.131,1.843c8.471,4.685,19.851,30.237,60.314,45.356c41.12,15.365,92.884,4.83,124.191-35.235
        c4.688-5.999,11.327-14.162,13.379-21.616c0.818-2.748,3.02-4.826,3.747-7.63c6.75-26.043,10.99-55.984-7.074-90.649
        c-23.857-45.786-62.589-51.528-88.102-60.157c-11.661-3.944-88.134-32.196-91.73-36.216c-11.327-12.665,52.069-29.266,94.19-28.698
        c28.766,0.387,56.709,11.298,82.447,23.907c88.751,43.477,126.691,177.74,59.914,269.713
        c-80.35,110.666-306.052,97.296-336.277-83.847c-0.761-4.563-2.831-11.344-1.46-15.849c1.586-5.215,4.225-7.803,4.02-13.768
        c0.25-3.077-0.511-6.813,1.964-9.163c2.317-3.066,6.677-2.339,9.947-1.567c2.385,2.01,3.168,5.609,6.177,6.995
        c8.101,4.401,7.258,5.984,6.097,17.991c0.518,1.234,0.888,2.591,1.056,4.09C1291.873,1375.946,1301.449,1384.711,1312.018,1392.08z
         M1259.035,1321.451c0.59-4.644,0.67-10.299,4.44-13.615c0.177,0.012,0.353,0.035,0.528,0.055c0.153-1.414,0.723-2.752,1.525-3.927
        c-2.476-2.786,1.299-20.269,6.088-16.908c4.985,2.475,10.435,4.565,14.637,8.301c1.17,5.734,0.102,11.662-0.659,17.407
        c-0.293,0.165-0.571,0.348-0.86,0.519c0.009,0.543-0.039,1.078-0.151,1.6c0.396,0.182,0.781,0.359,1.045,0.482
        c-1.59,7.04-0.193,15.284-4.497,21.438c-3.202,0.318-6.586,0.363-9.606-0.806c-2.43-1.805-2.918-5.462-5.882-6.665
        C1262.6,1327.685,1258.626,1325.505,1259.035,1321.451z M1240.696,1145.538c4.667,1.374,7.869,5.587,12.706,6.597
        c3.123,0.477,6.291,3.304,5.121,6.734c-4.042,4.235-9.175,7.88-11.06,13.694c-1.067,3.963-5.927,3.077-9.016,3.134
        c-2.373,1.419-5.326,3.815-7.983,1.578c-3.406-1.419-1.874-5.473-1.045-8.074
        C1237.405,1146.539,1232.848,1142.683,1240.696,1145.538z M1311.859,873.707c-9.251,4.582-69.939,24.579-75.716,24.697
        c-2.907-0.023-4.179-3.009-5.723-4.928c0.749-0.5,2.26-1.522,3.009-2.033c-0.25-5.553-1.033-11.139-2.907-16.374
        c-2.146-0.318-4.292,0.011-6.393,0.204c-0.216,0.806-0.647,2.419-0.863,3.225c-1.295-0.125-2.555-0.238-3.804-0.329
        c-1.726-7.563-1.919-15.409-4.122-22.858c-1.238-5.28-4.201-10.061-4.519-15.545c11.85,1.146,39.64,9.874,55.924,13.796
        c3.918,0.704,6.541,3.861,9.709,5.996c3.361,2.305,8.403-0.749,11.264,2.623c13.76,13.506,13.595,3.502,18.679,5.257
        C1309.111,868.495,1313.846,869.835,1311.859,873.707z M1453.378,631.752c-1.431,3.986-5.734,5.382-8.959,7.54
        c-0.045,2.941,0.284,5.905,0.068,8.857c-1.601,2.316-3.702,4.213-5.53,6.325c-0.125,3.021,0.534,6.37-1.124,9.107
        c-8.127,14.073-2.111,7.569-11.412,14.909c0.08,3.236,0.602,7.676-3.066,9.243c-4.383,1.93-6.132,6.643-9.379,9.845
        c-2.737,2.759-2.487,8.153-7.12,8.744c-3.395,2.68-7.676,4.247-10.299,7.835c-2.93,4.338-9.947,5.201-10.469,11.117
        c-0.443,5.655-5.848,8.516-9.005,12.593c-5.598,7.199-11.912,13.842-18.94,19.656c-4.201,1.794-9.175,2.157-12.377,5.825
        c-4.758,5.246-8.596,11.912-15.398,14.784c-9.958,2.748-20.496,0.591-30.534,2.203c-36.7,17.41-32.171-1.396-43.206,2.282
        c-2.101,0.091-2.01,2.544-1.567,4.054c1.669,4.565,5.859,7.869,6.711,12.82c-5.677,0.227-11.173-1.363-16.658-2.555
        c-63.577-13.803-47.546-13.346-70.584-20.36c-44.946-17.362-204.924-135.594-212.454-142.881
        c-2.884-3.316-7.665-2.124-11.174-3.566c-3.736-5.371-10.265-8.573-12.649-14.841c2.771,0.454,6.404,3.032,8.664,0.193
        c1.431-2.351,3.1-5.042,2.759-7.892c-4.076-7.517-11.173-12.843-18.691-16.613c-3.918-1.26-1.964-5.939-2.033-8.914
        c3.779-24.685-32.338-42.963-57.991-16.397c-2.055,1.851-3.679,4.27-6.143,5.598c-4.065-0.045-8.732-0.023-10.617-4.326
        c-3.622,0.5-3.883,3.758-4.031,6.768c-1.919-0.136-4.622,0.182-5.382-2.101c-2.578-6.813-4.406-14.296-2.339-21.507
        c3.543,1.453,6.177,4.292,9.039,6.734c1.953-1.874,4.463-3.577,5.008-6.438c1.09-5.723,6.393-8.959,10.015-13.024
        c3.441-3.009,5.257-7.245,7.71-10.992c2.18,0.795,4.349,1.646,6.586,2.373c-2.067-5.246-7.313-8.051-10.367-12.547
        c-1.306-1.726,0.568-3.248,1.476-4.565c1.465,1.09,2.941,2.18,4.417,3.304c2.509-2.316,4.917-4.746,7.097-7.381
        c-0.738-1.987-2.328-3.849-2.044-6.064c10.848-14.496,17.829-15.322,24.425-18.906c7.79,0.431,15.239,3.202,22.472,6.007
        c5.768,1.828,8.902,7.971,14.762,9.663c8.062,1.831,14.391,11.26,33.759,2.93c2.226-1.226,6.177-0.545,5.814,2.68
        c-1.135,4.315-4.667,7.812-4.656,12.491c-0.625,4.304,4.031,8.482,8.198,6.756c7.699-2.668,12.65-9.391,17.646-15.386
        c5.723,0.193,11.526-0.681,17.146-2.191c1.612-0.954,2.646-2.634,4.099-3.815c3.077-0.273,5.837,2.305,8.982,1.487
        c9.542-2.722,8.176-14.035,8.562-16.624c2.51-1.737,5.473-2.85,7.676-5.042c1.749-1.51,3.18-3.543,5.326-4.497
        c15.768-0.904,27.172,5.639,31.658,6.961c2.827,0.579,3.952,3.418,5.36,5.598c1.964,3.407,4.712,6.45,5.757,10.333
        c3.106,9.466,4.161,9.949,13.887,11.117c1.839-2.282,3.679-4.565,5.564-6.813c5.235,1.158,10.538,2.021,15.875,2.691
        c5.757,0.738,10.367,4.61,15.863,6.177c5.223,1.794,10.81,2.123,16.079,3.827c40.11,12.096,56.281,5.143,67.052,5.462
        c4.633-0.136,9.232,1.612,13.853,0.511c18.01-3.322,53.331-17.553,63.18-19.372c1.001-0.289,78.067-20.887,82.052-20.553
        c2.705,1.097,15.747,10.389,16.828,12.934c9.313,21.268,10.082,15.231,14.273,21.95c1.294,4.867-0.789,8.042,7.029,19.167
        c-0.08,5.598-0.659,11.242,0.25,16.806c1.896,3.713,4.86,6.893,5.927,11.026c0.92,3.338,2.487,6.427,4.406,9.323
        c3.168,7.676,4.122,16.17,7.563,23.744c0.182,3.395,0.988,6.711,2.271,9.868c1.226,0.375,2.475,0.772,3.747,1.17
        c0,2.714-1.317,5.768,0.227,8.266C1457.273,621.657,1455.002,627.233,1453.378,631.752z"/>
</g>
</svg>
